<?xml version="1.0" encoding="utf-8"?><!-- Uploaded to: SVG Repo, www.svgrepo.com, Generator: SVG Repo Mixer Tools -->
<svg fill="#000000" width="800px" height="800px" viewBox="0 0 24 24" id="cargo-ship-3" data-name="Flat Color" xmlns="http://www.w3.org/2000/svg" class="icon flat-color"><path id="primary" d="M8,7A1,1,0,0,1,7,6V4A1,1,0,0,1,9,4V6A1,1,0,0,1,8,7Z" style="fill: rgb(0, 0, 0);"></path><path id="secondary" d="M10,5H6A2,2,0,0,0,4,7v5a1,1,0,0,0,1,1h6a1,1,0,0,0,1-1V7A2,2,0,0,0,10,5Z" style="fill: rgb(44, 169, 188);"></path><path id="primary-2" data-name="primary" d="M20,9H16.62a2,2,0,0,0-1.79,1.11l-.45.89H4a2,2,0,0,0-1.58.77,2,2,0,0,0-.36,1.71l1.5,6A2,2,0,0,0,5.5,21H17.31a2,2,0,0,0,1.87-1.3l2.76-7.35A1,1,0,0,0,22,12V11A2,2,0,0,0,20,9Z" style="fill: rgb(0, 0, 0);"></path><path id="secondary-2" data-name="secondary" d="M17,16H14a1,1,0,0,1,0-2h3a1,1,0,0,1,0,2Z" style="fill: rgb(44, 169, 188);"></path></svg>