<svg width="1357" height="767" viewBox="0 0 1357 767" fill="none" xmlns="http://www.w3.org/2000/svg">
<path d="M1356.89 0H0.00250244V766.751H1356.89V0Z" fill="white"/>
<path d="M1356.89 711.136H0.00250244V766.752H1356.89V711.136Z" fill="#FFA726"/>
<path fill-rule="evenodd" clip-rule="evenodd" d="M168.485 137.15H90.3265V162.471L178.68 184.021L168.485 137.15Z" fill="#5382C8"/>
<path fill-rule="evenodd" clip-rule="evenodd" d="M90.3212 156.286L176.489 178.906L176.42 183.475L90.321 162.475L90.3212 156.286Z" fill="#5382C8"/>
<path d="M1147.11 609.825H297.601C294.866 609.825 292.649 612.043 292.649 614.778V624.682C292.649 627.417 294.866 629.634 297.601 629.634H1147.11C1149.84 629.634 1152.06 627.417 1152.06 624.682V614.778C1152.06 612.043 1149.84 609.825 1147.11 609.825Z" fill="#90A4AE"/>
<path d="M246.788 448.367H209.569C207.482 448.367 205.79 450.058 205.79 452.145V499.704C205.79 501.791 207.482 503.483 209.569 503.483H246.788C248.875 503.483 250.566 501.791 250.566 499.704V452.145C250.566 450.058 248.875 448.367 246.788 448.367Z" fill="#424242"/>
<path d="M188.64 467.726H177.552C176.038 467.726 174.811 468.954 174.811 470.468V504.984C174.811 506.498 176.038 507.726 177.552 507.726H188.64C190.154 507.726 191.382 506.498 191.382 504.984V470.468C191.382 468.954 190.154 467.726 188.64 467.726Z" fill="#FFB300"/>
<path d="M197.091 468.302H186.806C185.017 468.302 183.568 469.752 183.568 471.54V512.302C183.568 514.09 185.017 515.54 186.806 515.54H197.091C198.879 515.54 200.329 514.09 200.329 512.302V471.54C200.329 469.752 198.879 468.302 197.091 468.302Z" fill="#424242"/>
<path fill-rule="evenodd" clip-rule="evenodd" d="M704.189 526.019H650.231L635.092 537.851L524.736 528.787L461.632 545.022L340.354 557.572L348.543 512.773L303.871 513.202L289.819 500.651L253.585 490.523L727.85 485.593L704.189 526.019Z" fill="#424242"/>
<path d="M696.189 503.747H293.689L300.837 510.286H696.191L696.189 503.747Z" fill="#333333"/>
<path fill-rule="evenodd" clip-rule="evenodd" d="M1138.79 519.608L1033.28 568.739L1001.74 557.361L945.149 548.681L929.851 549.604L894.683 550.638L868.308 468.926H929.334L927.265 457.031L920.027 419.994L974.844 359.804L1125.34 418.243L1138.79 519.608Z" fill="#424242"/>
<path fill-rule="evenodd" clip-rule="evenodd" d="M1112.03 515.171H1105.75C1077.9 456.505 1038.13 448.633 992.662 465.047L958.847 497.99H947.692L948.04 450.755L1008 437.508L1068.66 433.673L1117.81 482.478L1112.03 515.171Z" fill="#333333"/>
<path fill-rule="evenodd" clip-rule="evenodd" d="M973.337 359.803L977.392 360.789L981.822 362.509L988.658 430.378L927.273 364.066V359.802L973.337 359.803Z" fill="#333333"/>
<path fill-rule="evenodd" clip-rule="evenodd" d="M953.54 223.431C965.383 210.114 1135.56 219.741 1137.48 225.991C1166.03 266.477 1190.39 308.035 1207.06 349.456C1212.34 368.566 1213.87 382.666 1214.82 396C1214.64 439.955 1208.99 478.432 1204.99 518.569L1109.83 515.466C1085.4 453.853 1043.36 441.551 991.403 457.027L947.444 458.061C949.422 379.851 942.571 232.155 953.543 223.43L953.54 223.431Z" fill="#084298"/>
<path fill-rule="evenodd" clip-rule="evenodd" d="M1185.48 473.699C1144.63 454.576 1098.46 427.884 1057.6 413.365C1025.28 406.471 993.145 407.847 961.994 405.242L961.839 421.644C989.576 421.783 1028.27 422.511 1057.04 426.76C1097.63 441.495 1143.71 466.187 1184.3 484.594L1185.48 473.699Z" fill="#5382C8"/>
<path fill-rule="evenodd" clip-rule="evenodd" d="M1169.85 376.848C1182.94 379.296 1196.39 381.813 1214.28 393.304L1213.73 400.801C1199.78 386.33 1183.43 384.443 1167.65 377.762L1169.85 376.848Z" fill="#5382C8"/>
<path fill-rule="evenodd" clip-rule="evenodd" d="M980.58 224.413C975.02 224.252 970.187 225.22 966.418 227.767C962.647 230.314 960.071 234.426 958.953 240.058L958.926 240.197V451.266L986.445 450.716L986.624 450.666C1015.17 442.645 1039.7 442.189 1059.93 449.887C1080.15 457.585 1096.19 473.426 1107.74 498.49L1108.13 499.332H1186.19L1186.27 497.971C1189.39 446.485 1191.63 394.861 1185.23 342.56L1185.21 342.408L1185.16 342.264C1171.43 302.488 1154.38 265.032 1127.47 234.725L1127.14 234.356L1126.65 234.262C1077.25 224.921 1028.87 224.684 980.586 224.412H980.582L980.58 224.413ZM980.501 227.308H980.534C1028.67 227.58 1076.7 227.837 1125.61 237.025C1151.92 266.805 1168.76 303.683 1182.37 343.078C1188.65 394.557 1186.52 445.494 1183.45 496.441H1109.94C1098.18 471.368 1081.7 455.081 1060.95 447.185C1040.02 439.215 1014.88 439.756 986.032 447.833L961.82 448.316V240.522C962.838 235.507 964.962 232.247 968.037 230.17C971.135 228.077 975.323 227.162 980.5 227.312L980.501 227.308Z" fill="#5382C8"/>
<path fill-rule="evenodd" clip-rule="evenodd" d="M1211.54 458.809C1198.73 450.825 1196.75 461.242 1184.96 460.878L1184.51 479.499C1192.15 484.263 1196.03 482.343 1209.57 483.676C1211.67 476.461 1211.93 467.873 1211.54 458.809Z" fill="#E6EE9C"/>
<path fill-rule="evenodd" clip-rule="evenodd" d="M1213.01 439.428C1201.11 431.444 1197.78 432.864 1186.83 432.5C1185.12 441.829 1183.41 451.333 1184.99 460.662C1191.47 464.401 1197.6 463.237 1211.19 464.295C1212.94 456.006 1213.58 447.717 1213.01 439.428Z" fill="#FFB300"/>
<path fill-rule="evenodd" clip-rule="evenodd" d="M1179.14 430.426C1189.86 430.787 1201.36 431.615 1213.01 439.432L1212.66 444.291C1200.47 438.316 1186.95 437.795 1179.55 437.605L1179.14 430.426Z" fill="#FF8F00"/>
<path fill-rule="evenodd" clip-rule="evenodd" d="M1184.47 485.454C1198.43 486.433 1212.38 487.764 1226.34 494.962C1226.5 504.415 1227.76 519.678 1218.13 529.261C1209.18 535.55 1154.42 531.963 1120.56 533.185L1107.76 515.084L1186.66 517.634L1184.47 485.454Z" fill="#333333"/>
<path fill-rule="evenodd" clip-rule="evenodd" d="M1168.79 377.125C1168.69 362.48 1170.46 347.638 1168.41 333.966C1162.53 315.273 1146.93 271.121 1121.01 244.883C1109.52 235.788 988.319 231.776 983.22 239.319C978.351 249.331 979.41 323.009 984.048 327.701C1009.92 349.7 1094.68 377.617 1168.79 377.126L1168.79 377.125Z" fill="#424242"/>
<path fill-rule="evenodd" clip-rule="evenodd" d="M1158.59 369.456C1158.5 355.788 1160.1 343.443 1158.17 330.683C1152.62 313.237 1140.22 271.571 1115.75 247.083C1104.89 238.596 990.458 234.851 985.647 241.892C981.05 251.235 983.009 319.869 987.388 324.248C1010.8 346.228 1099.82 369.925 1158.59 369.456L1158.59 369.456Z" fill="#D7CCC8"/>
<path fill-rule="evenodd" clip-rule="evenodd" d="M1249.72 279.132L1253.34 329.425C1257.88 328.647 1262.63 329.165 1266.53 324.512L1263.03 292.578C1261.31 288.268 1259.07 283.959 1256.31 279.649L1249.72 279.132Z" fill="#424242"/>
<path fill-rule="evenodd" clip-rule="evenodd" d="M1141.3 231.548C1167.4 269.158 1189.79 307.629 1205.63 346.021L1193.35 342.735C1177.61 305.528 1160.82 268.822 1135.95 235.942L1141.3 231.547V231.548Z" fill="#424242"/>
<path fill-rule="evenodd" clip-rule="evenodd" d="M1261.88 327.995L1261.1 336.787L1258.64 338.209H1207.45L1201.76 344.932V348.811L1204.21 349.457L1204.6 352.302L1201.76 355.922L1202.4 370.274L1200.2 371.825L1190.38 360.318L1191.41 348.165L1197.88 347.518V342.864L1205.51 333.296H1257.35L1258 327.995L1261.88 327.995Z" fill="#424242"/>
<path fill-rule="evenodd" clip-rule="evenodd" d="M1011.42 400.399L969.719 398.324V385.616C970.574 382.501 973.335 382.627 975.844 382.324L1000.85 384.244C1003.67 385.413 1009.46 388.015 1011.5 391.558L1011.42 400.399Z" fill="#212121"/>
<path d="M245.803 435.311H905.918C909.998 435.311 913.306 438.618 913.306 442.699V496.189C913.306 500.269 909.998 503.576 905.918 503.576H245.803C241.723 503.576 238.415 500.269 238.415 496.189V442.699C238.415 438.618 241.723 435.311 245.803 435.311Z" fill="#424242"/>
<path d="M392.856 623.243C434.055 623.243 467.454 589.518 467.454 547.917C467.454 506.316 434.055 472.591 392.856 472.591C351.657 472.591 318.259 506.316 318.259 547.917C318.259 589.518 351.657 623.243 392.856 623.243Z" fill="#9E9E9E"/>
<path d="M699.833 461.593H880.031C884.111 461.593 887.419 464.901 887.419 468.981V541.605C887.419 545.686 884.111 548.993 880.031 548.993H699.833C695.753 548.993 692.445 545.686 692.445 541.605V468.981C692.445 464.901 695.753 461.593 699.833 461.593Z" fill="#424242"/>
<path fill-rule="evenodd" clip-rule="evenodd" d="M905.829 490.03L898.434 497.918L931.465 549.19L986.188 547.218L986.681 537.358L936.395 537.851L905.829 490.03Z" fill="#333333"/>
<path d="M1030.44 623.243C1071.35 623.243 1104.51 589.533 1104.51 547.949C1104.51 506.365 1071.35 472.655 1030.44 472.655C989.524 472.655 956.358 506.365 956.358 547.949C956.358 589.533 989.524 623.243 1030.44 623.243Z" fill="#9E9E9E"/>
<path d="M1030.73 623.243C1071.55 623.243 1104.64 590.153 1104.64 549.336C1104.64 508.518 1071.55 475.428 1030.73 475.428C989.916 475.428 956.827 508.518 956.827 549.336C956.827 590.153 989.916 623.243 1030.73 623.243Z" fill="#666666"/>
<path d="M1030.73 595.409C1056.18 595.409 1076.81 574.781 1076.81 549.336C1076.81 523.89 1056.18 503.263 1030.73 503.263C1005.29 503.263 984.661 523.89 984.661 549.336C984.661 574.781 1005.29 595.409 1030.73 595.409Z" fill="#B0BEC5"/>
<path d="M1030.65 592.559C1054.57 592.559 1073.97 573.164 1073.97 549.24C1073.97 525.315 1054.57 505.921 1030.65 505.921C1006.72 505.921 987.33 525.315 987.33 549.24C987.33 573.164 1006.72 592.559 1030.65 592.559Z" fill="#999999"/>
<path d="M1030.73 585.624C1050.78 585.624 1067.02 569.377 1067.02 549.336C1067.02 529.294 1050.78 513.047 1030.73 513.047C1010.69 513.047 994.445 529.294 994.445 549.336C994.445 569.377 1010.69 585.624 1030.73 585.624Z" fill="#E6E6E6"/>
<path d="M1030.73 570.361C1042.35 570.361 1051.76 560.947 1051.76 549.336C1051.76 537.724 1042.35 528.311 1030.73 528.311C1019.12 528.311 1009.71 537.724 1009.71 549.336C1009.71 560.947 1019.12 570.361 1030.73 570.361Z" fill="#808080"/>
<path d="M1048.14 531.471C1049.86 531.471 1051.26 530.076 1051.26 528.355C1051.26 526.633 1049.86 525.238 1048.14 525.238C1046.42 525.238 1045.02 526.633 1045.02 528.355C1045.02 530.076 1046.42 531.471 1048.14 531.471Z" fill="#666666"/>
<path d="M1059.05 550.17C1060.77 550.17 1062.17 548.774 1062.17 547.053C1062.17 545.332 1060.77 543.936 1059.05 543.936C1057.33 543.936 1055.94 545.332 1055.94 547.053C1055.94 548.774 1057.33 550.17 1059.05 550.17Z" fill="#666666"/>
<path d="M1052.21 570.5C1053.93 570.5 1055.32 569.105 1055.32 567.384C1055.32 565.662 1053.93 564.267 1052.21 564.267C1050.48 564.267 1049.09 565.662 1049.09 567.384C1049.09 569.105 1050.48 570.5 1052.21 570.5Z" fill="#666666"/>
<path d="M1031.87 580.761C1033.6 580.761 1034.99 579.366 1034.99 577.645C1034.99 575.923 1033.6 574.528 1031.87 574.528C1030.15 574.528 1028.76 575.923 1028.76 577.645C1028.76 579.366 1030.15 580.761 1031.87 580.761Z" fill="#666666"/>
<path d="M1009.65 572.399C1011.37 572.399 1012.76 571.003 1012.76 569.282C1012.76 567.561 1011.37 566.166 1009.65 566.166C1007.92 566.166 1006.53 567.561 1006.53 569.282C1006.53 571.003 1007.92 572.399 1009.65 572.399Z" fill="#666666"/>
<path d="M1002.62 551.876C1004.34 551.876 1005.73 550.481 1005.73 548.76C1005.73 547.038 1004.34 545.643 1002.62 545.643C1000.9 545.643 999.5 547.038 999.5 548.76C999.5 550.481 1000.9 551.876 1002.62 551.876Z" fill="#666666"/>
<path d="M1010.6 533.071C1012.32 533.071 1013.71 531.676 1013.71 529.955C1013.71 528.233 1012.32 526.838 1010.6 526.838C1008.87 526.838 1007.48 528.233 1007.48 529.955C1007.48 531.676 1008.87 533.071 1010.6 533.071Z" fill="#666666"/>
<path d="M1027.51 525.285C1029.23 525.285 1030.63 523.889 1030.63 522.168C1030.63 520.447 1029.23 519.052 1027.51 519.052C1025.79 519.052 1024.4 520.447 1024.4 522.168C1024.4 523.889 1025.79 525.285 1027.51 525.285Z" fill="#666666"/>
<path d="M1030.65 567.319C1040.63 567.319 1048.73 559.225 1048.73 549.24C1048.73 539.254 1040.63 531.16 1030.65 531.16C1020.66 531.16 1012.57 539.254 1012.57 549.24C1012.57 559.225 1020.66 567.319 1030.65 567.319Z" fill="#999999"/>
<path d="M392.975 623.243C433.793 623.243 466.882 590.153 466.882 549.336C466.882 508.518 433.793 475.428 392.975 475.428C352.157 475.428 319.068 508.518 319.068 549.336C319.068 590.153 352.157 623.243 392.975 623.243Z" fill="#666666"/>
<path d="M392.975 595.409C418.42 595.409 439.048 574.781 439.048 549.336C439.048 523.89 418.42 503.263 392.975 503.263C367.529 503.263 346.902 523.89 346.902 549.336C346.902 574.781 367.529 595.409 392.975 595.409Z" fill="#B0BEC5"/>
<path d="M392.88 592.559C416.804 592.559 436.199 573.164 436.199 549.24C436.199 525.315 416.804 505.921 392.88 505.921C368.955 505.921 349.561 525.315 349.561 549.24C349.561 573.164 368.955 592.559 392.88 592.559Z" fill="#999999"/>
<path d="M392.975 585.624C413.016 585.624 429.263 569.377 429.263 549.336C429.263 529.294 413.016 513.047 392.975 513.047C372.933 513.047 356.686 529.294 356.686 549.336C356.686 569.377 372.933 585.624 392.975 585.624Z" fill="#E6E6E6"/>
<path d="M392.975 570.361C404.586 570.361 413.999 560.947 413.999 549.336C413.999 537.724 404.586 528.311 392.975 528.311C381.363 528.311 371.95 537.724 371.95 549.336C371.95 560.947 381.363 570.361 392.975 570.361Z" fill="#808080"/>
<path d="M410.38 531.471C412.102 531.471 413.497 530.076 413.497 528.355C413.497 526.633 412.102 525.238 410.38 525.238C408.659 525.238 407.264 526.633 407.264 528.355C407.264 530.076 408.659 531.471 410.38 531.471Z" fill="#666666"/>
<path d="M421.282 550.17C423.003 550.17 424.398 548.774 424.398 547.053C424.398 545.332 423.003 543.936 421.282 543.936C419.56 543.936 418.165 545.332 418.165 547.053C418.165 548.774 419.56 550.17 421.282 550.17Z" fill="#666666"/>
<path d="M414.444 570.5C416.166 570.5 417.561 569.105 417.561 567.384C417.561 565.662 416.166 564.267 414.444 564.267C412.723 564.267 411.328 565.662 411.328 567.384C411.328 569.105 412.723 570.5 414.444 570.5Z" fill="#666666"/>
<path d="M394.115 580.761C395.836 580.761 397.232 579.366 397.232 577.645C397.232 575.923 395.836 574.528 394.115 574.528C392.394 574.528 390.998 575.923 390.998 577.645C390.998 579.366 392.394 580.761 394.115 580.761Z" fill="#666666"/>
<path d="M371.886 572.399C373.607 572.399 375.003 571.003 375.003 569.282C375.003 567.561 373.607 566.166 371.886 566.166C370.165 566.166 368.769 567.561 368.769 569.282C368.769 571.003 370.165 572.399 371.886 572.399Z" fill="#666666"/>
<path d="M364.857 551.876C366.578 551.876 367.973 550.481 367.973 548.76C367.973 547.038 366.578 545.643 364.857 545.643C363.135 545.643 361.74 547.038 361.74 548.76C361.74 550.481 363.135 551.876 364.857 551.876Z" fill="#666666"/>
<path d="M372.835 533.071C374.557 533.071 375.952 531.676 375.952 529.955C375.952 528.233 374.557 526.838 372.835 526.838C371.114 526.838 369.719 528.233 369.719 529.955C369.719 531.676 371.114 533.071 372.835 533.071Z" fill="#666666"/>
<path d="M389.745 525.285C391.466 525.285 392.862 523.889 392.862 522.168C392.862 520.447 391.466 519.052 389.745 519.052C388.024 519.052 386.628 520.447 386.628 522.168C386.628 523.889 388.024 525.285 389.745 525.285Z" fill="#666666"/>
<path d="M392.88 567.319C402.865 567.319 410.96 559.225 410.96 549.24C410.96 539.254 402.865 531.16 392.88 531.16C382.895 531.16 374.8 539.254 374.8 549.24C374.8 559.225 382.895 567.319 392.88 567.319Z" fill="#999999"/>
<path d="M1190.08 442.585H1190.51C1191.48 442.585 1192.27 443.374 1192.27 444.346V457.71C1192.27 458.682 1191.48 459.47 1190.51 459.47H1190.08C1189.11 459.47 1188.32 458.682 1188.32 457.71V444.346C1188.32 443.374 1189.11 442.585 1190.08 442.585Z" fill="#FF8F00"/>
<path fill-rule="evenodd" clip-rule="evenodd" d="M1009.48 398.202V392.189C1006.63 390.053 1003.43 388.196 999.54 386.872L972.872 384.955C971.788 385.086 971.138 385.899 970.867 387.308L999.191 389.313C1002.18 389.98 1005.18 391.35 1008.17 393.06L1008.34 396.895L1009.48 398.202Z" fill="black"/>
<path d="M1034.67 238.3C1052.59 238.608 1072.21 239.66 1087.78 241.296L1012.46 339.21C1001.47 334.337 992.724 329.251 987.398 324.25C985.986 322.839 984.832 314.714 984.061 304.086L1034.67 238.3ZM1097.44 242.467C1102.73 243.208 1107.22 244.03 1110.5 244.929L1032.07 346.874C1028.03 345.47 1024.13 344.032 1020.43 342.564L1097.44 242.467Z" fill="#BCAAA4"/>
<path d="M691.112 503.747H888.773V511.765H691.112V503.747Z" fill="#333333"/>
<path fill-rule="evenodd" clip-rule="evenodd" d="M651.561 503.95C649.291 510.661 646.552 517.278 650.328 525.19L645.028 529.841C631.452 524.923 632.733 514.509 635.661 503.485L651.561 503.95Z" fill="#333333"/>
<path fill-rule="evenodd" clip-rule="evenodd" d="M341.901 468.281L295.031 522.694H283.717L303.65 463.433L341.901 468.281Z" fill="#333333"/>
<path d="M912.262 468.772H930.469V476.79H912.262V468.772Z" fill="#333333"/>
<path d="M921.989 137.257H134.608V470.969H921.989V137.257Z" fill="#084298"/>
<path d="M921.99 137.257H904.325V470.969H921.99V137.257Z" fill="#5382C8"/>
<path d="M153.83 142.856L134.608 167.811V305.803L260.111 142.862H153.828L153.83 142.856ZM520.555 142.856L267.833 470.969H522.613L775.335 142.856H520.555ZM804.454 142.856L551.733 470.969H658.013L910.734 142.856H804.454Z" fill="#084298"/>
<path d="M158.506 137.257H137.499V470.969H158.506V137.257Z" fill="#5382C8"/>
<path d="M921.989 140.19H134.608V154.923H921.989V140.19Z" fill="#5382C8"/>
<path d="M921.989 449.262H134.608V469.346H921.989V449.262Z" fill="#5382C8"/>
<path fill-rule="evenodd" clip-rule="evenodd" d="M570.005 449.231H674.398L673.355 460.699L568.066 458.005L570.005 449.231Z" fill="#5382C8"/>
<path fill-rule="evenodd" clip-rule="evenodd" d="M284.552 449.231H527.322L524.897 460.699L280.037 458.005L284.552 449.231Z" fill="#5382C8"/>
<path d="M215.744 137.257H194.738V470.969H215.744V137.257Z" fill="#5382C8"/>
<path d="M155.615 137.257H134.608V470.969H155.615V137.257Z" fill="#5382C8"/>
<path d="M219.659 137.257H198.652V470.969H219.659V137.257Z" fill="#5382C8"/>
<path d="M929.203 137.257H908.197V470.969H929.203V137.257Z" fill="#5382C8"/>
<path d="M270.157 137.257H249.151V470.969H270.157V137.257Z" fill="#5382C8"/>
<path d="M274.072 137.257H253.065V470.969H274.072V137.257Z" fill="#5382C8"/>
<path d="M324.57 137.257H303.564V470.969H324.57V137.257Z" fill="#5382C8"/>
<path d="M328.485 137.257H307.478V470.969H328.485V137.257Z" fill="#5382C8"/>
<path d="M377.905 137.257H356.898V470.969H377.905V137.257Z" fill="#5382C8"/>
<path d="M381.82 137.257H360.813V470.969H381.82V137.257Z" fill="#5382C8"/>
<path d="M432.123 137.257H411.116V470.969H432.123V137.257Z" fill="#5382C8"/>
<path d="M436.038 137.257H415.031V470.969H436.038V137.257Z" fill="#5382C8"/>
<path d="M486.533 137.257H465.526V470.969H486.533V137.257Z" fill="#5382C8"/>
<path d="M490.447 137.257H469.441V470.969H490.447V137.257Z" fill="#5382C8"/>
<path d="M540.943 137.257H519.936V470.969H540.943V137.257Z" fill="#5382C8"/>
<path d="M544.857 137.257H523.851V470.969H544.857V137.257Z" fill="#5382C8"/>
<path d="M594.286 137.257H573.279V470.969H594.286V137.257Z" fill="#5382C8"/>
<path d="M598.2 137.257H577.194V470.969H598.2V137.257Z" fill="#5382C8"/>
<path d="M648.504 137.257H627.497V470.969H648.504V137.257Z" fill="#5382C8"/>
<path d="M652.418 137.257H631.412V470.969H652.418V137.257Z" fill="#5382C8"/>
<path d="M702.914 137.257H681.907V470.969H702.914V137.257Z" fill="#5382C8"/>
<path d="M706.828 137.257H685.822V470.969H706.828V137.257Z" fill="#5382C8"/>
<path d="M757.323 137.257H736.317V470.969H757.323V137.257Z" fill="#5382C8"/>
<path d="M761.238 137.257H740.231V470.969H761.238V137.257Z" fill="#5382C8"/>
<path d="M810.656 137.257H789.649V470.969H810.656V137.257Z" fill="#5382C8"/>
<path d="M814.571 137.257H793.564V470.969H814.571V137.257Z" fill="#5382C8"/>
<path d="M868.842 137.257H847.835V470.969H868.842V137.257Z" fill="#5382C8"/>
<path d="M872.756 137.257H851.75V470.969H872.756V137.257Z" fill="#5382C8"/>
<path d="M921.989 452.025H134.608V470.967H921.989V452.025Z" fill="#5382C8"/>
<path d="M921.989 137.257H134.608V151.99H921.989V137.257Z" fill="#5382C8"/>
</svg>
